# xmcd
#
# Track frame offsets:
#  150
#  5240
#  25390
#  45462
#  64695
#  85695
#  106762
#  125930
#  146465
#  164912
#  182697
#
# Disc length: 2744 seconds
#
# Revision: 0
# Processed by: cddbd v1.5.1PL2 Copyright (c) Steve Scherf et al.
# Submitted via: Collectorz.com_Music_Collector 6.11
#
DISCID=970ab60b
DTITLE=Brød og Sirkus - Brød og Sirkus
DYEAR=1990
DGENRE=
TTITLE0=Svinmærr city
TTITLE1=Vinger
TTITLE2=Mer Av Deg
TTITLE3=Kong Midas I Revers
TTITLE4=Utopia
TTITLE5=En og En Blir To
TTITLE6=Bla'Bla' Ukebla'
TTITLE7=Vill, Ung Og Fri
TTITLE8=En Da'
TTITLE9=Mørket faller på
TTITLE10=Kong Midas I Revers (skateboardversjon)
EXTD=
EXTT0=
EXTT1=
EXTT2=
EXTT3=
EXTT4=
EXTT5=
EXTT6=
EXTT7=
EXTT8=
EXTT9=
EXTT10=
PLAYORDER=
